<svg xmlns="http://www.w3.org/2000/svg" viewBox="0 0 1024 1024" role="img"><path d="M569.613 542.972c-35.288 41.186-113.628 112.687-113.628 112.687s-3.42 3.345-8.78.642a25.594 25.594 0 01-3.062-2.539c-12.559-12.499-95.424-86.36-114.285-112.03-20.085-27.343-29.478-76.473-2.568-105.1 26.924-28.628 85.135-30.778 123.603 11.528 0 0 44.337-50.475 98.246-27.283s51.864 85.27 20.474 122.095zm159.592-146.616H696.86v160.982a222.157 222.157 0 0047.652-.822c30.39-9.856 58.33-31.21 58.33-85.418 0-22.176-7.87-38.23-17.681-49.639-13.948-16.203-34.571-25.103-55.956-25.103zM960 512c0 247.43-200.57 448-448 448S64 759.43 64 512 264.57 64 512 64s448 200.57 448 448zm-77.011-68.5c-9.438-49.832-36.273-80.878-63.766-100.082-28.433-19.847-62.496-30.046-97.17-30.046H229.864c-17.114 0-23.67 16.71-23.744 25.088 0 1.09.03 5.465.03 5.465s-.807 217.743.731 334.044c4.644 68.604 73.308 68.634 73.427 68.634 0 0 224.613-.657 332.327-1.33a63.353 63.353 0 0014.993-1.791c61.331-15.352 67.678-72.323 67.02-104.086 123.275 6.855 210.247-80.132 188.34-195.895z"/></svg>